<svg width="640" height="360" viewBox="0 0 640 360" fill="none" xmlns="http://www.w3.org/2000/svg">
  <defs>
    <linearGradient id="bg" x1="0" y1="0" x2="640" y2="360" gradientUnits="userSpaceOnUse">
      <stop stop-color="#EDF4F3"/>
      <stop offset="1" stop-color="#F8FBFB"/>
    </linearGradient>
  </defs>
  <rect width="640" height="360" rx="24" fill="url(#bg)"/>
  <circle cx="112" cy="92" r="42" fill="#D9F0EE"/>
  <circle cx="530" cy="82" r="48" fill="#FFE9E3"/>
  <rect x="84" y="88" width="472" height="198" rx="28" fill="white" fill-opacity="0.88" stroke="#D7E8E7"/>
  <rect x="122" y="122" width="164" height="116" rx="18" fill="#E7F6F4"/>
  <rect x="134" y="138" width="140" height="18" rx="9" fill="#008C8A" fill-opacity="0.22"/>
  <rect x="134" y="170" width="96" height="14" rx="7" fill="#1F2A30" fill-opacity="0.12"/>
  <rect x="134" y="194" width="118" height="14" rx="7" fill="#1F2A30" fill-opacity="0.12"/>
  <rect x="318" y="120" width="202" height="54" rx="16" fill="#F9FAF9" stroke="#DDEAEA"/>
  <rect x="318" y="186" width="202" height="54" rx="16" fill="#FFF8F6" stroke="#F1D9D2"/>
  <path d="M342 154H470" stroke="#008C8A" stroke-width="8" stroke-linecap="round"/>
  <path d="M344 218H438" stroke="#FF6F61" stroke-width="8" stroke-linecap="round"/>
  <circle cx="486" cy="150" r="16" fill="#008C8A" fill-opacity="0.18"/>
  <circle cx="446" cy="214" r="16" fill="#FF6F61" fill-opacity="0.18"/>
  <path d="M184 264L214 234" stroke="#1F2A30" stroke-width="8" stroke-linecap="round"/>
  <path d="M336 264L418 264" stroke="#1F2A30" stroke-width="8" stroke-linecap="round"/>
</svg>
