<svg width="1200" height="800" viewBox="0 0 1200 800" fill="none" xmlns="http://www.w3.org/2000/svg">
  <rect width="1200" height="800" rx="48" fill="#F5F8F7"/>
  <rect x="96" y="120" width="1008" height="560" rx="36" fill="#EAF4F3"/>
  <rect x="150" y="176" width="320" height="240" rx="24" fill="#FDFEFE"/>
  <rect x="520" y="176" width="252" height="240" rx="24" fill="#DCEDEB"/>
  <rect x="810" y="176" width="240" height="240" rx="24" fill="#FDFEFE"/>
  <rect x="150" y="452" width="900" height="164" rx="24" fill="#DDECE9"/>
  <rect x="184" y="488" width="180" height="96" rx="18" fill="#FFFFFF"/>
  <rect x="402" y="488" width="240" height="96" rx="18" fill="#FFFFFF"/>
  <rect x="684" y="488" width="164" height="96" rx="18" fill="#FFFFFF"/>
  <rect x="888" y="488" width="126" height="96" rx="18" fill="#FFFFFF"/>
  <rect x="208" y="214" width="120" height="56" rx="14" fill="#008C8A" fill-opacity="0.18"/>
  <rect x="208" y="286" width="164" height="20" rx="10" fill="#A7D2CE"/>
  <rect x="208" y="322" width="140" height="20" rx="10" fill="#C7E4E1"/>
  <rect x="544" y="214" width="112" height="112" rx="20" fill="#FFFFFF"/>
  <circle cx="600" cy="270" r="44" fill="#008C8A" fill-opacity="0.2"/>
  <circle cx="600" cy="270" r="28" fill="#008C8A" fill-opacity="0.42"/>
  <rect x="832" y="220" width="174" height="120" rx="22" fill="#F6FBFA"/>
  <path d="M896 300C896 264.654 923.654 237 959 237C994.346 237 1022 264.654 1022 300V316H896V300Z" fill="#008C8A" fill-opacity="0.16"/>
  <rect x="918" y="232" width="76" height="82" rx="16" fill="#008C8A" fill-opacity="0.3"/>
  <rect x="146" y="126" width="180" height="24" rx="12" fill="#1F2A30" fill-opacity="0.12"/>
  <rect x="526" y="596" width="280" height="18" rx="9" fill="#1F2A30" fill-opacity="0.12"/>
</svg>
